<svg xmlns="http://www.w3.org/2000/svg" xmlns:xlink="http://www.w3.org/1999/xlink" data-stacking-context="true" aria-owns="root" width="1201" height="200" viewBox="32 32 1201 200"><!-- Generated by dom-to-svg from about:srcdoc --><style/><g data-stacking-layer="rootBackgroundAndBorders"/><g data-stacking-layer="childStackingContextsWithNegativeStackLevels"/><g data-stacking-layer="inFlowNonInlineNonPositionedDescendants"/><g data-stacking-layer="nonPositionedFloats"/><g data-stacking-layer="inFlowInlineLevelNonPositionedDescendants"/><g data-stacking-layer="childStackingContextsWithStackLevelZeroAndPositionedDescendantsWithStackLevelZero"/><g data-stacking-layer="childStackingContextsWithPositiveStackLevels"/><g data-tag="div" id="root" data-z-index="auto" data-stacking-context="true" aria-owns="svg1"><g data-tag="svg" id="svg1" data-z-index="auto" data-stacking-context="true" mask="url(#mask-for-svg11)"><g data-stacking-layer="rootBackgroundAndBorders"/><g data-stacking-layer="childStackingContextsWithNegativeStackLevels"/><g data-stacking-layer="inFlowNonInlineNonPositionedDescendants"/><g data-stacking-layer="nonPositionedFloats"/><g data-stacking-layer="inFlowInlineLevelNonPositionedDescendants"/><g data-stacking-layer="childStackingContextsWithStackLevelZeroAndPositionedDescendantsWithStackLevelZero"/><g data-stacking-layer="childStackingContextsWithPositiveStackLevels"/><mask id="mask-for-svg11"><rect width="200" height="200" x="32" y="32" fill="#ffffff"/></mask><g class="svg-content" data-view-box="0 0 24 24" data-width="200px" data-height="200px" transform="matrix(8.33333 0 0 8.33333 32 32)"><path d="M6 20a2 2 0 1 0 -4 0a2 2 0 0 0 4 0" color="rgb(0, 0, 0)" fill="none" stroke="rgb(0, 0, 0)" stroke-linecap="round" stroke-linejoin="round" stroke-width="2px"/><path d="M16 4a2 2 0 1 0 -4 0a2 2 0 0 0 4 0" color="rgb(0, 0, 0)" fill="none" stroke="rgb(0, 0, 0)" stroke-linecap="round" stroke-linejoin="round" stroke-width="2px"/><path d="M16 20a2 2 0 1 0 -4 0a2 2 0 0 0 4 0" color="rgb(0, 0, 0)" fill="none" stroke="rgb(0, 0, 0)" stroke-linecap="round" stroke-linejoin="round" stroke-width="2px"/><path d="M11 12a2 2 0 1 0 -4 0a2 2 0 0 0 4 0" color="rgb(0, 0, 0)" fill="none" stroke="rgb(0, 0, 0)" stroke-linecap="round" stroke-linejoin="round" stroke-width="2px"/><path d="M21 12a2 2 0 1 0 -4 0a2 2 0 0 0 4 0" color="rgb(0, 0, 0)" fill="none" stroke="rgb(0, 0, 0)" stroke-linecap="round" stroke-linejoin="round" stroke-width="2px"/><path d="M5.058 18.306l2.88 -4.606" color="rgb(0, 0, 0)" fill="none" stroke="rgb(0, 0, 0)" stroke-linecap="round" stroke-linejoin="round" stroke-width="2px"/><path d="M10.061 10.303l2.877 -4.604" color="rgb(0, 0, 0)" fill="none" stroke="rgb(0, 0, 0)" stroke-linecap="round" stroke-linejoin="round" stroke-width="2px"/><path d="M10.065 13.705l2.876 4.6" color="rgb(0, 0, 0)" fill="none" stroke="rgb(0, 0, 0)" stroke-linecap="round" stroke-linejoin="round" stroke-width="2px"/><path d="M15.063 5.7l2.881 4.61" color="rgb(0, 0, 0)" fill="none" stroke="rgb(0, 0, 0)" stroke-linecap="round" stroke-linejoin="round" stroke-width="2px"/></g></g></g></svg>